<svg width="107" height="62" viewBox="0 0 107 62" fill="none" xmlns="http://www.w3.org/2000/svg">
<path opacity="0.1" d="M1.15717 41.9224C2.84984 49.1571 6.43364 55.4109 12.0984 58.4417C23.87 64.7416 50.419 61.4925 70.2321 57.7624C80.4758 55.8337 89.4882 50.5137 96.0325 43.0185L1.15717 41.9224Z" fill="#6C63FF"/>
<path opacity="0.1" d="M105.06 7.87002H94.1886C94.0676 7.87414 93.9469 7.85289 93.8339 7.80753C93.7208 7.76218 93.6177 7.69366 93.5307 7.60603C93.4436 7.5184 93.3744 7.41347 93.3271 7.29746C93.2798 7.18145 93.2555 7.05674 93.2555 6.93074C93.2555 6.80475 93.2798 6.68004 93.3271 6.56403C93.3744 6.44802 93.4436 6.34309 93.5307 6.25546C93.6177 6.16784 93.7208 6.09931 93.8339 6.05396C93.9469 6.00861 94.0676 5.98735 94.1886 5.99147H96.0672C95.9461 5.99558 95.8255 5.97433 95.7125 5.92898C95.5994 5.88363 95.4963 5.8151 95.4093 5.72747C95.3222 5.63985 95.253 5.53491 95.2057 5.4189C95.1584 5.3029 95.1341 5.17819 95.1341 5.05219C95.1341 4.92619 95.1584 4.80149 95.2057 4.68548C95.253 4.56947 95.3222 4.46453 95.4093 4.37691C95.4963 4.28928 95.5994 4.22075 95.7125 4.1754C95.8255 4.13005 95.9461 4.1088 96.0672 4.11291H94.7252C94.6042 4.11703 94.4835 4.09578 94.3705 4.05042C94.2574 4.00507 94.1543 3.93655 94.0673 3.84892C93.9802 3.76129 93.911 3.65636 93.8637 3.54035C93.8164 3.42434 93.7921 3.29963 93.7921 3.17364C93.7921 3.04764 93.8164 2.92293 93.8637 2.80692C93.911 2.69092 93.9802 2.58598 94.0673 2.49835C94.1543 2.41073 94.2574 2.3422 94.3705 2.29685C94.4835 2.2515 94.6042 2.23025 94.7252 2.23436H100.4C99.1404 1.64925 97.6732 1.23246 95.968 1.01505C80.5018 -0.971708 74.9777 0.342779 73.0288 1.69033C70.6203 3.35748 67.9421 4.5838 65.076 5.17492C55.5298 7.14365 37.6773 9.51213 21.4962 4.41649C13.4539 1.89071 7.477 6.1678 3.89417 13.3203H106.948C106.813 11.2414 106.41 9.32177 105.671 7.64159C105.499 7.78973 105.283 7.87055 105.06 7.87002Z" fill="#6C63FF"/>
<path opacity="0.1" d="M66.1723 30.6822L66.314 30.6912L102.733 32.8262C100.979 36.497 98.7477 39.8992 96.1019 42.9374L74.2571 42.1359L71.3611 42.0297L70.5644 42.0006L70.0712 41.9826L66.9883 41.8503L64.5172 41.7601L60.261 41.6049H60.1647L59.286 41.5738L56.0934 41.4566L54.9893 41.4155H54.9595L54.156 41.3864L53.5288 41.3644L51.8622 41.3023L51.315 41.2822H51.2687H51.1531L50.5317 41.2592H50.4778L49.1869 41.2111L44.5809 41.0428H44.5212L44.2476 41.0328L43.9903 41.0238H43.9287L41.0385 40.9186L39.5212 40.8634L37.7919 40.8003L37.2842 40.7813H37.2197L33.764 40.6581L32.7727 40.621L25.5473 40.3565L24.7216 40.3264L24.3363 40.3134L17.1706 40.0509L16.9587 40.0439L15.7621 39.9988L0.656218 39.4468C-0.0418058 35.279 -0.183798 31.031 0.234255 26.8229L18.1889 27.8739L19.0781 27.926L20.08 27.9841L26.4076 28.3538L48.9836 29.6763L50.5144 29.7664L64.6935 30.595L66.1723 30.6822Z" fill="#6C63FF"/>
<path opacity="0.1" d="M106.952 13.3865L31.9654 15.2089L23.7236 15.4093L2.74389 15.9173C1.478 19.1774 0.636 22.8604 0.248718 26.6776H105.126C105.809 24.4401 106.316 22.1481 106.639 19.8247C106.952 17.5764 107.078 15.4073 106.952 13.3865ZM21.4028 21.6892H19.5242C19.7684 21.6846 20.0044 21.7808 20.1806 21.9567C20.3568 22.1327 20.4589 22.374 20.4644 22.628C20.4644 22.648 20.4644 22.666 20.4644 22.6851C20.4541 22.8313 20.4109 22.9729 20.3385 23.0987C20.2661 23.2245 20.1663 23.3309 20.0473 23.4094C19.8917 23.5131 19.7108 23.568 19.5261 23.5677H8.65524C8.53415 23.5719 8.4135 23.5506 8.30047 23.5053C8.18744 23.4599 8.08433 23.3914 7.99727 23.3037C7.91022 23.2161 7.84099 23.1112 7.79372 22.9952C7.74644 22.8792 7.72208 22.7545 7.72208 22.6285C7.72208 22.5025 7.74644 22.3778 7.79372 22.2618C7.84099 22.1457 7.91022 22.0408 7.99727 21.9532C8.08433 21.8656 8.18744 21.797 8.30047 21.7517C8.4135 21.7063 8.53415 21.6851 8.65524 21.6892H10.5338C10.4128 21.6933 10.2921 21.672 10.1791 21.6267C10.066 21.5813 9.96293 21.5128 9.87588 21.4252C9.78882 21.3376 9.7196 21.2326 9.67232 21.1166C9.62504 21.0006 9.60068 20.8759 9.60068 20.7499C9.60068 20.6239 9.62504 20.4992 9.67232 20.3832C9.7196 20.2672 9.78882 20.1623 9.87588 20.0746C9.96293 19.987 10.066 19.9185 10.1791 19.8731C10.2921 19.8278 10.4128 19.8065 10.5338 19.8106H9.19281C9.07172 19.8147 8.95107 19.7935 8.83804 19.7481C8.72501 19.7028 8.62189 19.6343 8.53484 19.5466C8.44778 19.459 8.37856 19.3541 8.33129 19.2381C8.28401 19.1221 8.25965 18.9973 8.25965 18.8714C8.25965 18.7454 8.28401 18.6206 8.33129 18.5046C8.37856 18.3886 8.44778 18.2837 8.53484 18.1961C8.62189 18.1084 8.72501 18.0399 8.83804 17.9946C8.95107 17.9492 9.07172 17.928 9.19281 17.9321H20.0637C20.1848 17.928 20.3054 17.9492 20.4184 17.9946C20.5315 18.0399 20.6346 18.1084 20.7216 18.1961C20.8087 18.2837 20.8779 18.3886 20.9252 18.5046C20.9725 18.6206 20.9968 18.7454 20.9968 18.8714C20.9968 18.9973 20.9725 19.1221 20.9252 19.2381C20.8779 19.3541 20.8087 19.459 20.7216 19.5466C20.6346 19.6343 20.5315 19.7028 20.4184 19.7481C20.3054 19.7935 20.1848 19.8147 20.0637 19.8106H21.4057C21.561 19.8107 21.7141 19.8499 21.8517 19.9248C21.9989 20.002 22.1228 20.1197 22.2099 20.2651C22.2971 20.4105 22.3441 20.5781 22.3459 20.7494C22.3404 21.0035 22.2384 21.2449 22.0622 21.421C21.886 21.5971 21.65 21.6935 21.4057 21.6892H21.4028Z" fill="#6C63FF"/>
</svg>
