<svg width="198" height="127" viewBox="0 0 198 127" fill="none" xmlns="http://www.w3.org/2000/svg">
<path d="M182.961 0H11.8827C11.2644 -7.75608e-07 10.6521 0.134423 10.0808 0.395596C9.50947 0.656769 8.99037 1.03957 8.55312 1.52216C8.11587 2.00475 7.76903 2.57766 7.53239 3.20819C7.29575 3.83872 7.17395 4.51451 7.17395 5.19699V110.401C7.17395 111.084 7.29575 111.76 7.53238 112.39C7.76902 113.021 8.11587 113.594 8.55312 114.076C8.99037 114.559 9.50947 114.942 10.0808 115.203C10.6521 115.464 11.2644 115.599 11.8827 115.599H182.961C184.21 115.598 185.407 115.051 186.29 114.076C187.174 113.102 187.67 111.78 187.67 110.401V5.19699C187.67 3.81866 187.174 2.49679 186.29 1.52216C185.407 0.54754 184.21 7.83209e-07 182.961 0Z" fill="#3F3D56"/>
<path d="M181.357 9.18454H13.4869V113.698H181.357V9.18454Z" fill="white"/>
<path d="M97.2783 6.33415C98.2291 6.33415 99 5.48338 99 4.43391C99 3.38443 98.2291 2.53366 97.2783 2.53366C96.3274 2.53366 95.5565 3.38443 95.5565 4.43391C95.5565 5.48338 96.3274 6.33415 97.2783 6.33415Z" fill="white"/>
<path d="M133.349 113.698H13.4869V9.18472L133.349 113.698Z" fill="#F2F2F2"/>
<path d="M39.7536 105.877C48.6653 105.877 55.8897 97.904 55.8897 88.0683C55.8897 78.2326 48.6653 70.2592 39.7536 70.2592C30.8418 70.2592 23.6174 78.2326 23.6174 88.0683C23.6174 97.904 30.8418 105.877 39.7536 105.877Z" fill="#6C63FF"/>
<path d="M43.3456 101.454C39.3758 101.454 35.4951 100.154 32.1943 97.7202C28.8935 95.286 26.3209 91.8262 24.8017 87.7783C23.2825 83.7304 22.885 79.2762 23.6595 74.9789C24.434 70.6817 26.3456 66.7345 29.1527 63.6363C31.9598 60.5382 35.5363 58.4284 39.4298 57.5736C43.3233 56.7188 47.3591 57.1575 51.0268 58.8342C54.6944 60.5109 57.8292 63.3503 60.0347 66.9933C62.2402 70.6363 63.4174 74.9193 63.4174 79.3008C63.4174 82.2099 62.8982 85.0906 61.8895 87.7783C60.8808 90.466 59.4023 92.9081 57.5385 94.9652C55.6747 97.0223 53.462 98.654 51.0267 99.7673C48.5915 100.881 45.9815 101.454 43.3456 101.454ZM43.3456 57.4375C39.4277 57.4375 35.5977 58.7197 32.3401 61.1221C29.0824 63.5245 26.5434 66.939 25.0441 70.934C23.5447 74.929 23.1525 79.325 23.9168 83.566C24.6811 87.8071 26.5678 91.7028 29.3382 94.7604C32.1086 97.818 35.6383 99.9003 39.4809 100.744C43.3236 101.588 47.3066 101.155 50.9263 99.4998C54.546 97.845 57.6398 95.0427 59.8165 91.4473C61.9932 87.8519 63.155 83.6249 63.155 79.3008C63.155 76.4296 62.6426 73.5866 61.6471 70.9341C60.6516 68.2815 59.1925 65.8713 57.353 63.8411C55.5135 61.8109 53.3297 60.2005 50.9263 59.1017C48.5229 58.003 45.947 57.4375 43.3456 57.4375L43.3456 57.4375Z" fill="#3F3D56"/>
<path d="M142.495 63.4825H126.814V67.0988H142.495V63.4825Z" fill="#3F3D56"/>
<path d="M157.331 43.8908H111.979V45.4407H157.331V43.8908Z" fill="#3F3D56"/>
<path d="M157.331 49.9799H111.979V51.5298H157.331V49.9799Z" fill="#3F3D56"/>
<path d="M157.331 56.069H111.979V57.6189H157.331V56.069Z" fill="#3F3D56"/>
<path d="M169.48 15.4392H162.927V22.6719H169.48V15.4392Z" fill="#6C63FF"/>
<path d="M172.522 26.0299H164.565V17.2474H172.522V26.0299ZM164.911 25.648H172.176V17.6292H164.911L164.911 25.648Z" fill="#CCCCCC"/>
<path d="M192.383 111.798H176V110.495C176 110.461 175.994 110.428 175.982 110.396C175.97 110.365 175.953 110.337 175.931 110.313C175.91 110.289 175.884 110.27 175.855 110.257C175.827 110.244 175.797 110.237 175.766 110.237H170.149C170.118 110.237 170.088 110.244 170.059 110.257C170.031 110.27 170.005 110.289 169.983 110.313C169.962 110.337 169.944 110.365 169.933 110.396C169.921 110.428 169.915 110.461 169.915 110.495V111.798H166.404V110.495C166.404 110.461 166.398 110.428 166.386 110.396C166.375 110.365 166.357 110.337 166.336 110.313C166.314 110.289 166.288 110.27 166.26 110.257C166.231 110.244 166.201 110.237 166.17 110.237H160.553C160.522 110.237 160.492 110.244 160.464 110.257C160.435 110.27 160.409 110.289 160.388 110.313C160.366 110.337 160.349 110.365 160.337 110.396C160.325 110.428 160.319 110.461 160.319 110.495V111.798H156.809V110.495C156.809 110.461 156.802 110.428 156.791 110.396C156.779 110.365 156.762 110.337 156.74 110.313C156.718 110.289 156.692 110.27 156.664 110.257C156.636 110.244 156.605 110.237 156.574 110.237H150.957C150.927 110.237 150.896 110.244 150.868 110.257C150.839 110.27 150.814 110.289 150.792 110.313C150.77 110.337 150.753 110.365 150.741 110.396C150.729 110.428 150.723 110.461 150.723 110.495V111.798H147.213V110.495C147.213 110.461 147.207 110.428 147.195 110.396C147.183 110.365 147.166 110.337 147.144 110.313C147.122 110.289 147.097 110.27 147.068 110.257C147.04 110.244 147.009 110.237 146.979 110.237H141.362C141.331 110.237 141.301 110.244 141.272 110.257C141.244 110.27 141.218 110.289 141.196 110.313C141.174 110.337 141.157 110.365 141.145 110.396C141.134 110.428 141.128 110.461 141.128 110.495V111.798H137.617V110.495C137.617 110.461 137.611 110.428 137.599 110.396C137.587 110.365 137.57 110.337 137.548 110.313C137.527 110.289 137.501 110.27 137.473 110.257C137.444 110.244 137.414 110.237 137.383 110.237H131.766C131.735 110.237 131.705 110.244 131.676 110.257C131.648 110.27 131.622 110.289 131.6 110.313C131.579 110.337 131.561 110.365 131.55 110.396C131.538 110.428 131.532 110.461 131.532 110.495V111.798H128.021V110.495C128.021 110.461 128.015 110.428 128.003 110.396C127.992 110.365 127.974 110.337 127.953 110.313C127.931 110.289 127.905 110.27 127.877 110.257C127.848 110.244 127.818 110.237 127.787 110.237H122.17C122.139 110.237 122.109 110.244 122.081 110.257C122.052 110.27 122.026 110.289 122.005 110.313C121.983 110.337 121.966 110.365 121.954 110.396C121.942 110.428 121.936 110.461 121.936 110.495V111.798H118.426V110.495C118.426 110.461 118.419 110.428 118.408 110.396C118.396 110.365 118.379 110.337 118.357 110.313C118.335 110.289 118.309 110.27 118.281 110.257C118.253 110.244 118.222 110.237 118.192 110.237H74.1915C74.1608 110.237 74.1303 110.244 74.1019 110.257C74.0735 110.27 74.0477 110.289 74.026 110.313C74.0043 110.337 73.987 110.365 73.9753 110.396C73.9635 110.428 73.9575 110.461 73.9575 110.495V111.798H70.4468V110.495C70.4468 110.461 70.4408 110.428 70.429 110.396C70.4172 110.365 70.4 110.337 70.3783 110.313C70.3565 110.289 70.3307 110.27 70.3023 110.257C70.2739 110.244 70.2435 110.237 70.2128 110.237H64.5958C64.565 110.237 64.5346 110.244 64.5062 110.257C64.4778 110.27 64.452 110.289 64.4303 110.313C64.4085 110.337 64.3913 110.365 64.3795 110.396C64.3678 110.428 64.3617 110.461 64.3617 110.495V111.798H60.8511V110.495C60.8511 110.461 60.845 110.428 60.8333 110.396C60.8215 110.365 60.8043 110.337 60.7825 110.313C60.7608 110.289 60.735 110.27 60.7066 110.257C60.6782 110.244 60.6478 110.237 60.6171 110.237H55C54.9693 110.237 54.9388 110.244 54.9104 110.257C54.882 110.27 54.8562 110.289 54.8345 110.313C54.8128 110.337 54.7955 110.365 54.7838 110.396C54.772 110.428 54.766 110.461 54.766 110.495V111.798H51.2553V110.495C51.2553 110.461 51.2493 110.428 51.2375 110.396C51.2257 110.365 51.2085 110.337 51.1868 110.313C51.165 110.289 51.1392 110.27 51.1108 110.257C51.0825 110.244 51.052 110.237 51.0213 110.237H45.4043C45.3735 110.237 45.3431 110.244 45.3147 110.257C45.2863 110.27 45.2605 110.289 45.2388 110.313C45.217 110.337 45.1998 110.365 45.188 110.396C45.1763 110.428 45.1702 110.461 45.1702 110.495V111.798H41.6596V110.495C41.6596 110.461 41.6535 110.428 41.6418 110.396C41.63 110.365 41.6128 110.337 41.591 110.313C41.5693 110.289 41.5435 110.27 41.5151 110.257C41.4867 110.244 41.4563 110.237 41.4255 110.237H35.8085C35.7778 110.237 35.7474 110.244 35.719 110.257C35.6906 110.27 35.6648 110.289 35.643 110.313C35.6213 110.337 35.6041 110.365 35.5923 110.396C35.5805 110.428 35.5745 110.461 35.5745 110.495V111.798H32.0638V110.495C32.0638 110.461 32.0578 110.428 32.046 110.396C32.0343 110.365 32.017 110.337 31.9953 110.313C31.9735 110.289 31.9478 110.27 31.9194 110.257C31.891 110.244 31.8605 110.237 31.8298 110.237H26.2128C26.1507 110.237 26.0912 110.264 26.0473 110.313C26.0034 110.361 25.9787 110.427 25.9787 110.495V111.798H22.4681V110.495C22.4681 110.461 22.462 110.428 22.4503 110.396C22.4385 110.365 22.4213 110.337 22.3995 110.313C22.3778 110.289 22.352 110.27 22.3236 110.257C22.2952 110.244 22.2648 110.237 22.2341 110.237H16.617C16.555 110.237 16.4954 110.264 16.4515 110.313C16.4076 110.361 16.383 110.427 16.383 110.495V111.798H5.61701C4.12728 111.798 2.69858 112.451 1.64519 113.614C0.591794 114.776 0 116.353 0 117.997V120.801C3.54815e-06 122.445 0.591795 124.022 1.64519 125.184C2.69858 126.347 4.12729 127 5.61701 127H192.383C193.873 127 195.301 126.347 196.355 125.184C197.408 124.022 198 122.445 198 120.801V117.997C198 117.183 197.855 116.377 197.572 115.625C197.29 114.873 196.876 114.189 196.355 113.614C195.833 113.038 195.214 112.581 194.533 112.27C193.851 111.958 193.121 111.798 192.383 111.798Z" fill="#3F3D56"/>
</svg>
