<svg width="198" height="127" viewBox="0 0 198 127" fill="none" xmlns="http://www.w3.org/2000/svg">
<path d="M25.6771 126.999H2.37962C1.74875 126.999 1.14391 126.734 0.697807 126.263C0.251701 125.791 0.000752701 125.153 0 124.486V90.566C0.000755155 89.8997 0.251701 89.2609 0.697807 88.7898C1.14391 88.3187 1.74875 88.0537 2.37962 88.0529H25.6771C26.3079 88.0537 26.9127 88.3187 27.3588 88.7898C27.805 89.2609 28.0559 89.8997 28.0567 90.566V124.486C28.0559 125.153 27.805 125.791 27.3588 126.263C26.9127 126.734 26.3079 126.999 25.6771 126.999Z" fill="#6C63FF"/>
<path d="M68.1629 126.999H44.8655C44.2346 126.999 43.6298 126.734 43.1836 126.263C42.7375 125.791 42.4866 125.153 42.4858 124.486V58.3929C42.4866 57.7265 42.7375 57.0878 43.1836 56.6166C43.6298 56.1455 44.2346 55.8805 44.8655 55.8797H68.1629C68.7938 55.8805 69.3986 56.1455 69.8447 56.6166C70.2908 57.0878 70.5418 57.7265 70.5425 58.3929V124.486C70.5418 125.153 70.2908 125.791 69.8447 126.263C69.3986 126.734 68.7938 126.999 68.1629 126.999Z" fill="#6C63FF"/>
<path d="M110.649 126.999H87.3513C86.7204 126.999 86.1156 126.734 85.6695 126.263C85.2234 125.791 84.9724 125.153 84.9717 124.486V90.566C84.9724 89.8997 85.2234 89.2609 85.6695 88.7898C86.1156 88.3187 86.7204 88.0537 87.3513 88.0529H110.649C111.28 88.0537 111.884 88.3186 112.331 88.7898C112.777 89.2609 113.028 89.8997 113.028 90.566V124.486C113.028 125.153 112.777 125.791 112.331 126.263C111.884 126.734 111.28 126.999 110.649 126.999Z" fill="#6C63FF"/>
<path d="M153.134 126.999H129.837C129.221 127.013 128.624 126.769 128.178 126.319C127.732 125.869 127.473 125.251 127.457 124.6V45.579C127.473 44.9279 127.732 44.3098 128.178 43.8601C128.624 43.4104 129.221 43.1658 129.837 43.1798H153.134C153.751 43.1658 154.348 43.4104 154.794 43.8601C155.24 44.3098 155.499 44.928 155.514 45.579V124.6C155.499 125.251 155.24 125.869 154.794 126.319C154.348 126.769 153.751 127.013 153.134 126.999Z" fill="#6C63FF"/>
<path d="M195.62 126.999H172.323C171.692 126.999 171.087 126.734 170.641 126.263C170.195 125.791 169.944 125.153 169.943 124.486V22.833C169.944 22.1667 170.195 21.5279 170.641 21.0568C171.087 20.5857 171.692 20.3207 172.323 20.3199H195.62C196.251 20.3207 196.856 20.5857 197.302 21.0568C197.748 21.5279 197.999 22.1667 198 22.833V124.486C197.999 125.153 197.748 125.791 197.302 126.263C196.856 126.734 196.251 126.999 195.62 126.999Z" fill="#6C63FF"/>
<path d="M14.0285 77.893C16.6848 77.893 18.8382 75.6186 18.8382 72.813C18.8382 70.0074 16.6848 67.733 14.0285 67.733C11.3721 67.733 9.21875 70.0074 9.21875 72.813C9.21875 75.6186 11.3721 77.893 14.0285 77.893Z" fill="#3F3D56"/>
<path d="M56.5142 44.8731C59.1705 44.8731 61.3239 42.5988 61.3239 39.7932C61.3239 36.9876 59.1705 34.7132 56.5142 34.7132C53.8579 34.7132 51.7045 36.9876 51.7045 39.7932C51.7045 42.5988 53.8579 44.8731 56.5142 44.8731Z" fill="#3F3D56"/>
<path d="M99 77.893C101.656 77.893 103.81 75.6186 103.81 72.813C103.81 70.0074 101.656 67.733 99 67.733C96.3437 67.733 94.1903 70.0074 94.1903 72.813C94.1903 75.6186 96.3437 77.893 99 77.893Z" fill="#3F3D56"/>
<path d="M141.486 28.7865C144.142 28.7865 146.296 26.5122 146.296 23.7066C146.296 20.901 144.142 18.6266 141.486 18.6266C138.83 18.6266 136.676 20.901 136.676 23.7066C136.676 26.5122 138.83 28.7865 141.486 28.7865Z" fill="#3F3D56"/>
<path d="M183.972 10.16C186.628 10.16 188.781 7.88558 188.781 5.07998C188.781 2.27438 186.628 0 183.972 0C181.315 0 179.162 2.27438 179.162 5.07998C179.162 7.88558 181.315 10.16 183.972 10.16Z" fill="#3F3D56"/>
<path d="M99.1011 73.9508L56.5146 40.2604L14.5089 73.4905L13.548 72.1359L56.5146 38.1441L98.8985 71.6746L141.018 22.9936L141.186 22.9209L183.672 4.84139L184.271 6.4119L141.954 24.4198L99.1011 73.9508Z" fill="#3F3D56"/>
</svg>
