<svg width="60" height="61" viewBox="0 0 60 61" fill="none" xmlns="http://www.w3.org/2000/svg">
<g clip-path="url(#clip0)">
<path d="M56.1129 15.6462C53.4823 10.8976 49.6925 6.95579 45.127 4.21973C40.5194 1.40172 35.2605 -0.0568844 29.9157 0.00070715C24.7428 0.0374592 19.6708 1.49275 15.2115 4.21973C10.6459 6.95579 6.8561 10.8976 4.22554 15.6462C1.48652 20.3697 0.026536 25.7757 0.000184539 31.2918C-0.0364203 37.8721 1.97996 44.2872 5.74666 49.5742C9.42053 54.8818 14.6333 58.8249 20.6199 60.8249C20.8689 60.9221 21.1364 60.9569 21.4007 60.9264C21.665 60.8958 21.9187 60.8008 22.141 60.6491C22.4595 60.3246 22.6417 59.8823 22.6481 59.4186V57.1333V53.6174H21.634C20.9142 53.8082 20.1784 53.9259 19.4368 53.969C18.5276 53.9293 17.6232 53.8117 16.7326 53.6174C15.8071 53.4176 14.9391 52.9963 14.1974 52.3869C13.4151 51.7557 12.8275 50.9002 12.5072 49.9258L12.0002 48.871C11.677 48.1822 11.2801 47.5336 10.8171 46.9373C10.4076 46.2106 9.82567 45.6053 9.12695 45.1794H8.78892C8.59939 45.0263 8.42905 44.8491 8.28188 44.652C8.1462 44.4934 8.03242 44.3159 7.94385 44.1246L8.11286 43.5972C8.48812 43.4414 8.89376 43.3812 9.29596 43.4215H10.141C10.8182 43.6502 11.4486 44.0079 12.0002 44.4762C12.7628 45.0271 13.3979 45.7477 13.8593 46.5857C14.3671 47.6427 15.1228 48.5496 16.0565 49.2226C16.7983 49.7722 17.6813 50.0783 18.5917 50.1016C19.3842 50.1306 20.1775 50.0717 20.9579 49.9258C21.5458 49.761 22.1131 49.525 22.6481 49.2226C22.7631 47.6304 23.4226 46.1336 24.5072 45.0036C23.1966 44.8692 21.8972 44.6342 20.6199 44.3004C19.3211 43.9388 18.0717 43.4072 16.9016 42.7183C15.6144 42.0872 14.4642 41.19 13.5213 40.0814C12.7077 38.7345 12.135 37.2456 11.8312 35.6866C11.2657 33.749 10.9809 31.7345 10.9861 29.7096C10.9227 28.1362 11.1588 26.5652 11.6809 25.087C12.203 23.6088 13.0007 22.2524 14.0284 21.0958C13.0397 18.4254 13.1004 15.4578 14.1974 12.8336C15.3493 12.6247 16.5353 12.8097 17.5777 13.3609C18.7425 13.7956 19.8727 14.3246 20.9579 14.9431L22.6481 15.9978C27.5167 14.6148 32.6527 14.6148 37.5213 15.9978L39.0424 14.9431C40.1704 14.2436 41.3587 13.6551 42.5917 13.1851C43.5967 12.7071 44.7243 12.5836 45.803 12.8336C46.9549 15.4345 47.0763 18.4025 46.141 21.0958C48.1747 23.388 49.2664 26.4161 49.1833 29.5338C49.186 31.5586 48.9012 33.5726 48.3382 35.5108C47.9423 37.0986 47.2535 38.5912 46.3101 39.9056C45.4078 40.986 44.3185 41.8804 43.0988 42.5425C41.9812 43.2165 40.7895 43.7477 39.5495 44.1246C38.2168 44.4671 36.8606 44.7022 35.4931 44.8278C36.2232 45.5782 36.7838 46.4879 37.1345 47.4911C37.4853 48.4944 37.6174 49.5661 37.5213 50.6289V59.2428C37.5277 59.7065 37.7099 60.1488 38.0284 60.4733C38.2507 60.625 38.5044 60.72 38.7687 60.7506C39.033 60.7811 39.3005 60.7464 39.5495 60.6491C45.5361 58.6491 50.7489 54.706 54.4227 49.3984C58.1292 44.0896 60.0857 37.6763 60.0002 31.116C60.1068 25.5733 58.7632 20.1046 56.1129 15.2947V15.6462Z" fill="#3E3D57"/>
</g>
<defs>
<clipPath id="clip0">
<rect width="60" height="61" fill="white"/>
</clipPath>
</defs>
</svg>
