<svg width="60" height="61" viewBox="0 0 60 61" fill="none" xmlns="http://www.w3.org/2000/svg">
<path d="M51.1175 51.9822H42.2325V37.8276C42.2325 34.4523 42.165 30.1086 37.6025 30.1086C32.97 30.1086 32.2625 33.7813 32.2625 37.5785V51.9822H23.3775V22.875H31.9125V26.8425H32.0275C33.22 24.555 36.12 22.1405 40.4525 22.1405C49.455 22.1405 51.12 28.1642 51.12 36.0053V51.9822H51.1175ZM13.3425 18.8922C10.4825 18.8922 8.185 16.5386 8.185 13.6437C8.185 10.7513 10.485 8.40021 13.3425 8.40021C16.1925 8.40021 18.5025 10.7513 18.5025 13.6437C18.5025 16.5386 16.19 18.8922 13.3425 18.8922ZM17.7975 51.9822H8.8875V22.875H17.7975V51.9822ZM55.5625 0H4.4275C1.98 0 0 1.96725 0 4.39454V56.6055C0 59.0353 1.98 61 4.4275 61H55.555C58 61 60 59.0353 60 56.6055V4.39454C60 1.96725 58 0 55.555 0H55.5625Z" fill="#3E3D57"/>
</svg>
