<svg width="454" height="323" viewBox="0 0 454 323" fill="none" xmlns="http://www.w3.org/2000/svg">
<path d="M159.175 290.182L159.317 289.595C159.349 289.466 162.565 276.623 172.271 269.649C181.978 262.675 194.73 264.046 194.857 264.061L195.438 264.128L195.296 264.714C195.264 264.843 192.049 277.686 182.342 284.66C172.636 291.634 159.883 290.263 159.756 290.248L159.175 290.182ZM172.853 270.517C164.646 276.413 161.227 286.664 160.474 289.248C163.078 289.419 173.562 289.683 181.761 283.792C189.958 277.902 193.383 267.646 194.14 265.061C191.534 264.89 181.051 264.626 172.853 270.517Z" fill="#F1F1F1"/>
<path d="M176.377 273.633C171.481 284.701 159.948 290.09 159.948 290.09C159.948 290.09 156.352 277.535 161.248 266.467C166.143 255.4 177.676 250.011 177.676 250.011C177.676 250.011 181.272 262.566 176.377 273.633Z" fill="#F1F1F1"/>
<path d="M52.1063 286.18C46.8274 269.38 46.3953 250.288 55.3167 234.702C59.1092 228.076 64.4395 222.355 70.9772 218.615C78.5183 214.3 87.2234 212.889 95.7398 212.695C114.258 212.272 132.65 216.901 151.17 214.508C159.479 213.434 167.767 211.026 174.889 206.355C181.048 202.317 186.393 196.666 189.548 189.812C192.621 183.271 193.316 175.804 191.507 168.777C189.756 162.13 185.637 155.916 179.613 152.734C174.14 149.842 167.421 149.766 161.765 152.157C155.681 154.73 151.301 160.051 150.369 166.861C149.206 175.357 152.903 183.763 157.018 190.874C160.979 197.719 165.781 204.144 171.616 209.391C177.268 214.474 183.933 218.481 191.263 220.261C198.218 221.95 205.719 221.8 212.479 219.306C219.454 216.725 225.267 211.579 228.812 204.848C232.77 197.442 234.151 188.884 234.016 180.5C233.855 170.598 231.836 160.795 230.033 151.106C228.205 141.279 226.24 131.48 224.138 121.71C223.114 116.948 222.058 112.193 220.969 107.446C220.742 106.455 219.266 106.875 219.494 107.867C223.823 126.761 227.871 145.806 230.942 164.967C232.4 174.062 233.313 183.496 231.485 192.61C229.943 200.295 226.484 207.746 220.567 212.83C209.277 222.533 192.436 221.305 180.352 213.983C173.835 210.034 168.307 204.503 163.73 198.323C158.998 191.934 154.591 184.628 152.594 176.786C151.562 172.736 151.269 168.414 152.46 164.364C153.379 161.249 155.183 158.492 157.636 156.451C162.231 152.593 168.728 151.208 174.47 152.508C180.94 153.972 185.946 159.011 188.632 165.14C191.42 171.615 191.746 178.941 189.543 185.654C187.226 192.739 182.422 198.795 176.646 203.199C170.072 208.212 162.236 211.056 154.235 212.457C136.283 215.601 118.25 211.49 100.265 211.112C92.0689 210.94 83.6682 211.593 75.9219 214.557C69.0211 217.217 62.9264 221.726 58.2608 227.622C48.026 240.47 45.1928 257.519 47.6155 273.682C48.2849 278.065 49.2933 282.385 50.6308 286.601C50.934 287.566 52.4121 287.153 52.1063 286.18L52.1063 286.18Z" fill="#E5E5E5"/>
<path d="M55.65 282.359H45.959V290.276H55.65V282.359Z" fill="#6C63FF"/>
<path d="M220.331 107.64H393.181C425.925 107.64 452.47 88.3276 452.47 54.444V54.4439C452.47 20.5603 425.925 6.43756 393.181 6.43756H338.908C273.42 6.43756 220.331 39.8728 220.331 107.64V107.64Z" fill="white"/>
<path d="M393.182 109.223H218.801V107.64C218.801 75.2166 231.02 48.4951 254.138 30.3642C275.416 13.6756 304.729 4.85425 338.908 4.85425H393.182C410.713 4.85425 425.513 8.8594 435.982 16.437C447.938 25.0911 454 37.8784 454 54.4439C454 71.0519 447.801 85.0672 436.072 94.9749C425.196 104.163 409.963 109.223 393.182 109.223ZM221.871 106.057H393.182C427.729 106.057 450.94 85.3152 450.94 54.4439C450.94 12.5445 410.548 8.02106 393.182 8.02106H338.908C282.732 8.02106 222.732 33.8117 221.871 106.057H221.871Z" fill="#E5E5E5"/>
<path d="M319.89 38.0641H299.474V43.1501H319.89V38.0641Z" fill="#6C63FF"/>
<path d="M390.59 38.0641H383.407V43.1501H390.59V38.0641Z" fill="#6C63FF"/>
<path d="M404.957 38.0641H397.774V43.1501H404.957V38.0641Z" fill="#6C63FF"/>
<path d="M375.845 38.0641H327.073V43.1501H375.845V38.0641Z" fill="#6C63FF"/>
<path d="M294.181 70.9277H273.765V76.0137H294.181V70.9277Z" fill="#6C63FF"/>
<path d="M364.881 70.9277H357.698V76.0137H364.881V70.9277Z" fill="#6C63FF"/>
<path d="M379.248 70.9277H372.065V76.0137H379.248V70.9277Z" fill="#6C63FF"/>
<path d="M350.136 70.9277H301.365V76.0137H350.136V70.9277Z" fill="#6C63FF"/>
<path d="M378.492 49.4099H358.076V54.4959H378.492V49.4099Z" fill="#6C63FF"/>
<path d="M406.091 49.4099H385.675V54.4959H406.091V49.4099Z" fill="#6C63FF"/>
<path d="M420.458 49.4099H413.275V54.4959H420.458V49.4099Z" fill="#6C63FF"/>
<path d="M295.315 49.4099H288.132V54.4959H295.315V49.4099Z" fill="#6C63FF"/>
<path d="M351.271 49.4099H302.499V54.4959H351.271V49.4099Z" fill="#6C63FF"/>
<path d="M336.148 60.3644H315.731V65.4504H336.148V60.3644Z" fill="#6C63FF"/>
<path d="M308.548 60.3644H288.132V65.4504H308.548V60.3644Z" fill="#6C63FF"/>
<path d="M420.458 60.3644H413.275V65.4504H420.458V60.3644Z" fill="#6C63FF"/>
<path d="M406.091 60.3644H398.908V65.4504H406.091V60.3644Z" fill="#6C63FF"/>
<path d="M391.725 60.3644H342.953V65.4504H391.725V60.3644Z" fill="#6C63FF"/>
<path d="M194.84 290.804H0.510051C0.374777 290.804 0.245043 290.748 0.14939 290.649C0.053737 290.55 0 290.416 0 290.276C0 290.136 0.053737 290.002 0.14939 289.903C0.245043 289.804 0.374777 289.748 0.510051 289.748H194.84C194.975 289.748 195.105 289.804 195.2 289.903C195.296 290.002 195.35 290.136 195.35 290.276C195.35 290.416 195.296 290.55 195.2 290.649C195.105 290.748 194.975 290.804 194.84 290.804Z" fill="#CBCBCB"/>
<path d="M117.822 323H58.1458C58.0105 323 57.8808 322.944 57.7851 322.845C57.6895 322.746 57.6357 322.612 57.6357 322.472C57.6357 322.332 57.6895 322.198 57.7851 322.099C57.8808 322 58.0105 321.944 58.1458 321.944H117.822C117.957 321.944 118.087 322 118.182 322.099C118.278 322.198 118.332 322.332 118.332 322.472C118.332 322.612 118.278 322.746 118.182 322.845C118.087 322.944 117.957 323 117.822 323Z" fill="#CBCBCB"/>
<path d="M61.421 178.127C62.0492 177.289 62.492 176.318 62.7183 175.283C62.9447 174.248 62.949 173.175 62.731 172.138C62.513 171.101 62.0781 170.127 61.4567 169.283C60.8354 168.439 60.0428 167.746 59.1347 167.254L62.8316 141.75L51.0822 147.387L49.3729 170.741C48.6742 172.375 48.5789 174.216 49.1048 175.918C49.6308 177.619 50.7416 179.062 52.2267 179.972C53.7118 180.882 55.468 181.197 57.1626 180.857C58.8572 180.517 60.3724 179.546 61.421 178.127V178.127Z" fill="#FFB7B7"/>
<path d="M96.9455 313.559L88.4888 313.559L84.4661 279.805L96.947 279.806L96.9455 313.559Z" fill="#FFB7B7"/>
<path d="M99.1023 322.042L71.8347 322.041V321.684C71.8349 318.771 72.9532 315.978 74.9435 313.918C76.9339 311.859 79.6333 310.702 82.448 310.701H82.4487L99.1028 310.702L99.1023 322.042Z" fill="#2F2E41"/>
<path d="M127.172 293.43L119.274 296.578L103.783 266.554L115.439 261.908L127.172 293.43Z" fill="#FFB7B7"/>
<path d="M132.134 300.549L106.67 310.698L106.546 310.365C105.534 307.645 105.607 304.62 106.749 301.956C107.892 299.291 110.011 297.206 112.639 296.158L112.64 296.158L128.193 289.959L132.134 300.549Z" fill="#2F2E41"/>
<path d="M72.3681 158.309L69.9785 172.573L108.211 292.914L128.622 286.466L114.038 242.08L99.3003 176.266L98.9811 152.807L72.3681 158.309Z" fill="#2F2E41"/>
<path d="M80.7773 307.155L87.6625 258.432L86.5521 249.236L98.9811 221.011L97.5489 154.111L124.651 158.309L114.038 244.478L100.215 295.087L97.4387 306.006L80.7773 307.155Z" fill="#2F2E41"/>
<path d="M84.9427 42.5072C93.5309 42.5072 100.493 35.3028 100.493 26.4157C100.493 17.5286 93.5309 10.3242 84.9427 10.3242C76.3545 10.3242 69.3923 17.5286 69.3923 26.4157C69.3923 35.3028 76.3545 42.5072 84.9427 42.5072Z" fill="#FFB8B8"/>
<path d="M100.291 9.29378C97.8097 5.12442 93.926 2.05206 89.3871 0.66803L86.0534 3.42779L87.3495 0.208837C86.2595 0.0367758 85.1564 -0.0291952 84.0546 0.0117807L81.0551 4.00248L82.2965 0.148475C79.6938 0.483174 77.1863 1.3723 74.9322 2.75978C72.678 4.14726 70.7262 6.003 69.1997 8.20998C65.382 13.9062 65.6375 21.8243 69.3923 27.5651C70.4231 24.2873 70.7744 21.2151 71.8051 17.9373C72.6152 18.0516 73.4362 18.0557 74.2473 17.9496L75.5014 14.9217L75.8517 17.8216C79.7385 17.4711 85.5037 16.7018 89.1885 15.9969L88.8303 13.7723L90.974 15.621C92.103 15.352 92.7732 15.1081 92.7178 14.9217C95.4584 19.4935 98.1738 22.4136 100.914 26.9854C101.955 20.5367 103.791 15.1764 100.291 9.29378Z" fill="#2F2E41"/>
<path d="M115.154 46.6558C115.154 46.6558 85.5396 43.9316 72.5781 55.0636L68.5593 154.861L70.7757 162.648C70.7757 162.648 81.3758 164.837 94.2382 161.061C107.101 157.285 124.652 162.648 124.652 162.648L126.539 101.539L115.154 46.6558Z" fill="#CBCBCB"/>
<path d="M71.5568 156.71L80.7985 59.6249L79.0543 51.2534C79.0543 51.2534 61.2247 56.4641 54.728 66.3584L66.4537 150.49V158.309L71.5568 156.71Z" fill="#3F3D56"/>
<path d="M112.989 150.263C112.989 150.263 88.1946 63.2302 97.0923 47.3282C97.0923 47.3282 114.99 42.1057 123.541 48.5473L128.277 102.002C128.277 102.002 137.78 132.565 130.493 139.753L132.092 146.94C132.092 146.94 122.371 147.533 120.29 147.812C118.208 148.09 112.989 150.263 112.989 150.263Z" fill="#3F3D56"/>
<path d="M60.2557 65.7825L54.7281 66.3584C54.7281 66.3584 52.7411 67.4751 52.9854 72.4386C53.2297 77.4021 47.2498 150.137 50.2398 154.861L48.509 161.021L60.7272 164.469L61.4531 158.309C61.4531 158.309 66.4024 142.387 67.0358 138.342C67.6693 134.297 60.2557 65.7825 60.2557 65.7825Z" fill="#3F3D56"/>
<path d="M120.921 149.053C120.898 147.992 121.101 146.939 121.514 145.968C121.927 144.997 122.54 144.132 123.312 143.433C124.083 142.734 124.993 142.218 125.977 141.922C126.962 141.627 127.997 141.558 129.01 141.721L140.702 118.946L146.905 130.71L134.851 150.534C134.474 152.277 133.492 153.816 132.091 154.86C130.69 155.903 128.968 156.379 127.251 156.196C125.533 156.014 123.941 155.186 122.774 153.869C121.608 152.552 120.948 150.839 120.921 149.053Z" fill="#FFB7B7"/>
<path d="M116.402 51.371L122.985 48.5473C122.985 48.5473 133.706 54.5771 134.565 60.53C135.424 66.4828 156.64 105.02 156.64 105.02C156.64 105.02 149.055 139.328 142.24 141.41L138.536 145.639L128.303 138.817L131.618 135.386C131.618 135.386 131.531 117.237 134.589 113.986C134.589 113.986 125.983 91.1948 122.096 88.896C118.208 86.5972 116.402 51.371 116.402 51.371Z" fill="#3F3D56"/>
</svg>
