<svg width="60" height="61" viewBox="0 0 60 61" fill="none" xmlns="http://www.w3.org/2000/svg">
<path d="M56.3839 13.8884C54.8884 16.1124 53.0804 18.0073 50.9598 19.5731C50.9822 19.8908 50.9933 20.3674 50.9933 21.0028C50.9933 23.9529 50.5692 26.8974 49.721 29.8362C48.8728 32.775 47.5837 35.5947 45.8538 38.2952C44.1239 40.9957 42.0648 43.3842 39.6764 45.4607C37.288 47.5371 34.4085 49.1937 31.038 50.4305C27.6674 51.6673 24.0625 52.2857 20.2232 52.2857C14.1741 52.2857 8.63841 50.6404 3.61609 47.3499C4.39734 47.4407 5.26787 47.486 6.2277 47.486C11.25 47.486 15.7255 45.9202 19.654 42.7885C17.3103 42.7431 15.2121 42.0113 13.3594 40.5929C11.5067 39.1746 10.2344 37.3648 9.54243 35.1635C10.279 35.277 10.9598 35.3337 11.5848 35.3337C12.5447 35.3337 13.4933 35.2089 14.4308 34.9593C11.9308 34.4373 9.86051 33.1722 8.21988 31.1638C6.57926 29.1554 5.75895 26.8237 5.75895 24.1685V24.0324C7.2768 24.8947 8.90627 25.3599 10.6473 25.428C9.17413 24.4295 8.00225 23.1246 7.13171 21.5134C6.26118 19.9022 5.82591 18.1548 5.82591 16.2712C5.82591 14.2742 6.31698 12.4247 7.29912 10.7227C10 14.104 13.2868 16.8102 17.1596 18.8412C21.0324 20.8723 25.1786 22.0013 29.5982 22.2282C29.4197 21.3659 29.3304 20.5262 29.3304 19.7093C29.3304 16.6683 30.3851 14.0756 32.4944 11.9311C34.6038 9.78655 37.154 8.71429 40.1451 8.71429C43.2701 8.71429 45.904 9.87165 48.0469 12.1864C50.4799 11.7098 52.7679 10.8248 54.9107 9.53125C54.0848 12.141 52.5 14.1607 50.1563 15.5904C52.2322 15.3635 54.3081 14.7961 56.3839 13.8884Z" fill="#3E3D57"/>
</svg>
